<svg width="76" height="42" viewBox="0 0 76 42" fill="none" xmlns="http://www.w3.org/2000/svg">
<g filter="url(#filter0_d_639_2322)">
<rect x="7" y="3" width="62" height="28" rx="14" fill="#64AE90"/>
<rect x="7.5" y="3.5" width="61" height="27" rx="13.5" stroke="#CCA90D"/>
</g>
<path d="M36.88 11.7201L41.36 16.2001H31.6V17.8001H41.36L36.88 22.2801L38 23.4001L44.4 17.0001L38 10.6001L36.88 11.7201Z" fill="white"/>
<path d="M44.2654 24.2203L45.8148 22.4915C47.0077 21.1605 48.7106 20.4 50.4979 20.4C52.1336 20.4 53.705 19.7627 54.8785 18.6233L55.4313 18.0866C56.3854 17.1603 57.6629 16.6421 58.9928 16.6421H59.7705C60.9247 16.6421 62.0085 16.0876 62.6838 15.1517L64.3979 12.7761C64.6998 12.3577 65.2943 12.2854 65.6877 12.6192C65.8858 12.7873 66 13.034 66 13.2938V18.1716C66 22.4951 62.4951 26 58.1716 26H45.1837C44.2683 26 43.735 24.9663 44.2654 24.2203Z" fill="#6CCAA4"/>
<defs>
<filter id="filter0_d_639_2322" x="0.9" y="0.9" width="74.2" height="40.2" filterUnits="userSpaceOnUse" color-interpolation-filters="sRGB">
<feFlood flood-opacity="0" result="BackgroundImageFix"/>
<feColorMatrix in="SourceAlpha" type="matrix" values="0 0 0 0 0 0 0 0 0 0 0 0 0 0 0 0 0 0 127 0" result="hardAlpha"/>
<feMorphology radius="2" operator="erode" in="SourceAlpha" result="effect1_dropShadow_639_2322"/>
<feOffset dy="4"/>
<feGaussianBlur stdDeviation="4.05"/>
<feComposite in2="hardAlpha" operator="out"/>
<feColorMatrix type="matrix" values="0 0 0 0 0 0 0 0 0 0 0 0 0 0 0 0 0 0 0.25 0"/>
<feBlend mode="normal" in2="BackgroundImageFix" result="effect1_dropShadow_639_2322"/>
<feBlend mode="normal" in="SourceGraphic" in2="effect1_dropShadow_639_2322" result="shape"/>
</filter>
</defs>
</svg>
