<svg width="349" height="88" viewBox="0 0 349 88" fill="none" xmlns="http://www.w3.org/2000/svg">
<rect x="0.5" y="0.5" width="348" height="87" rx="19.5" fill="white" stroke="#CCA90D"/>
<path d="M304.256 76.822L307.021 73.7311C309.145 71.357 312.18 70 315.366 70C318.281 70 321.082 68.8626 323.172 66.8298L324.162 65.8671C325.861 64.2142 328.139 63.2895 330.509 63.2895H331.893C333.952 63.2895 335.885 62.2996 337.088 60.6293L340.144 56.3865C340.682 55.6395 341.743 55.5104 342.444 56.1067C342.797 56.4063 343 56.8455 343 57.3081V66.0358C343 73.748 336.748 80 329.036 80H305.897C304.263 80 303.31 78.1549 304.256 76.822Z" fill="#F4F0DB"/>
</svg>
