<svg width="24" height="24" viewBox="0 0 24 24" fill="none" xmlns="http://www.w3.org/2000/svg">
<path d="M0 24V7.282C0 6.68556 0.269714 6.17744 0.809143 5.75767C1.34886 5.33811 2.00229 5.12833 2.76943 5.12833H14.868C15.6351 5.12833 16.2884 5.33811 16.8279 5.75767C17.3676 6.17744 17.6374 6.68556 17.6374 7.282V24L8.835 20.4617L0 24ZM1.71429 21.864L8.835 18.9717L15.9231 21.864V7.282C15.9231 7.04267 15.8243 6.84611 15.6266 6.69233C15.4286 6.53856 15.1757 6.46167 14.868 6.46167H2.76943C2.46171 6.46167 2.20886 6.53856 2.01086 6.69233C1.81314 6.84611 1.71429 7.04267 1.71429 7.282V21.864ZM22.2857 19.2563V2.154C22.2857 1.91467 22.1869 1.718 21.9891 1.564C21.7911 1.41022 21.5383 1.33333 21.2306 1.33333H4.78029V0H21.2306C21.9977 0 22.6511 0.209778 23.1909 0.629334C23.7303 1.04911 24 1.55733 24 2.154V19.2563H22.2857Z" fill="#90BAA9"/>
</svg>
