<svg width="22" height="14" viewBox="0 0 22 14" fill="none" xmlns="http://www.w3.org/2000/svg">
<path d="M0.265372 12.2203L1.81482 10.4915C3.00771 9.16053 4.71059 8.4 6.49791 8.4C8.13362 8.4 9.70497 7.76268 10.8785 6.62326L11.4313 6.08661C12.3854 5.16025 13.6629 4.64211 14.9928 4.64211H15.7705C16.9247 4.64211 18.0085 4.08762 18.6838 3.15171L20.3979 0.776132C20.6998 0.357714 21.2943 0.285394 21.6877 0.619221C21.8858 0.787311 22 1.03398 22 1.29378V6.17161C22 10.4951 18.4951 14 14.1716 14H1.18366C0.268313 14 -0.265047 12.9663 0.265372 12.2203Z" fill="#6CCAA4"/>
</svg>
