<svg width="22" height="22" viewBox="0 0 22 22" fill="none" xmlns="http://www.w3.org/2000/svg">
<path d="M6.81863 16.1122H7.79167L8.76471 13.3517H13.2353L14.2083 16.1122H15.1814L11.3983 5.67623H10.6017L6.81863 16.1122ZM9.0679 12.4878L10.9542 7.17475H11.0458L12.9321 12.4878H9.0679ZM4.23087 19.25C3.8089 19.25 3.4566 19.1087 3.17396 18.826C2.89132 18.5434 2.75 18.1911 2.75 17.7691V4.23087C2.75 3.8089 2.89132 3.4566 3.17396 3.17396C3.4566 2.89132 3.8089 2.75 4.23087 2.75H17.7691C18.1911 2.75 18.5434 2.89132 18.826 3.17396C19.1087 3.4566 19.25 3.8089 19.25 4.23087V17.7691C19.25 18.1911 19.1087 18.5434 18.826 18.826C18.5434 19.1087 18.1911 19.25 17.7691 19.25H4.23087ZM4.23087 18.3333H17.7691C17.9103 18.3333 18.0396 18.2746 18.1571 18.1571C18.2746 18.0396 18.3333 17.9103 18.3333 17.7691V4.23087C18.3333 4.08971 18.2746 3.96038 18.1571 3.8429C18.0396 3.72541 17.9103 3.66667 17.7691 3.66667H4.23087C4.08971 3.66667 3.96038 3.72541 3.8429 3.8429C3.72541 3.96038 3.66667 4.08971 3.66667 4.23087V17.7691C3.66667 17.9103 3.72541 18.0396 3.8429 18.1571C3.96038 18.2746 4.08971 18.3333 4.23087 18.3333Z" fill="#64AE90"/>
</svg>
