<svg width="14" height="20" viewBox="0 0 14 20" fill="none" xmlns="http://www.w3.org/2000/svg">
<path fill-rule="evenodd" clip-rule="evenodd" d="M4.33334 18.0003C4.33334 18.3539 4.19287 18.6931 3.94282 18.9431C3.69277 19.1932 3.35363 19.3337 3.00001 19.3337H1.66668C1.31305 19.3337 0.973917 19.1932 0.723868 18.9431C0.47382 18.6931 0.333344 18.3539 0.333344 18.0003V2.00033C0.333344 1.6467 0.47382 1.30757 0.723868 1.05752C0.973917 0.807468 1.31305 0.666992 1.66668 0.666992H3.00001C3.35363 0.666992 3.69277 0.807468 3.94282 1.05752C4.19287 1.30757 4.33334 1.6467 4.33334 2.00033V18.0003ZM13.6667 18.0003C13.6667 18.3539 13.5262 18.6931 13.2762 18.9431C13.0261 19.1932 12.687 19.3337 12.3333 19.3337H11C10.6464 19.3337 10.3072 19.1932 10.0572 18.9431C9.80715 18.6931 9.66668 18.3539 9.66668 18.0003V2.00033C9.66668 1.6467 9.80715 1.30757 10.0572 1.05752C10.3072 0.807468 10.6464 0.666992 11 0.666992H12.3333C12.687 0.666992 13.0261 0.807468 13.2762 1.05752C13.5262 1.30757 13.6667 1.6467 13.6667 2.00033V18.0003Z" fill="white"/>
</svg>
