<svg width="24" height="24" viewBox="0 0 24 24" fill="none" xmlns="http://www.w3.org/2000/svg">
<path d="M1.53125 22.75C1.37614 22.75 1.25 22.6239 1.25 22.4688V1.53125L1.25586 1.47656C1.26662 1.42237 1.29239 1.37167 1.33203 1.33203C1.38477 1.27929 1.45666 1.25 1.53125 1.25L1.58594 1.25586C1.64013 1.26662 1.69083 1.29239 1.73047 1.33203C1.78321 1.38477 1.8125 1.45666 1.8125 1.53125V22.4688C1.8125 22.6239 1.68636 22.75 1.53125 22.75ZM22.75 21.2148C22.75 22.4086 21.454 23.129 20.4492 22.5391L20.3525 22.4775L6.91309 13.2637L6.91211 13.2627C6.08111 12.6929 6.0295 11.507 6.75684 10.8604L6.91211 10.7383H6.91309L20.3525 1.52246C21.37 0.826887 22.7496 1.55469 22.75 2.78516V21.2148Z" fill="#64AE90" stroke="#CCA90D"/>
</svg>
