<svg width="24" height="24" viewBox="0 0 24 24" fill="none" xmlns="http://www.w3.org/2000/svg">
<path d="M22.4688 1.25C22.6239 1.25 22.75 1.37614 22.75 1.53125V22.4688L22.7441 22.5234C22.7334 22.5776 22.7076 22.6283 22.668 22.668C22.6152 22.7207 22.5433 22.75 22.4688 22.75L22.4141 22.7441C22.3599 22.7334 22.3092 22.7076 22.2695 22.668C22.2168 22.6152 22.1875 22.5433 22.1875 22.4688V1.53125C22.1875 1.37614 22.3136 1.25 22.4688 1.25ZM1.25 2.78516C1.25 1.59143 2.546 0.871043 3.55078 1.46094L3.64746 1.52246L17.0869 10.7363L17.0879 10.7373C17.9189 11.3071 17.9705 12.493 17.2432 13.1396L17.0879 13.2617H17.0869L3.64746 22.4775C2.63002 23.1731 1.25035 22.4453 1.25 21.2148V2.78516Z" fill="#64AE90" stroke="#CCA90D"/>
</svg>
