<svg width="84" height="72" viewBox="0 0 84 72" fill="none" xmlns="http://www.w3.org/2000/svg">
<g opacity="0.7" clip-path="url(#clip0_14_796)">
<path opacity="0.25" d="M42.0145 72.0002C62.0376 72.0002 78.2695 66.7036 78.2695 60.17C78.2695 53.6364 62.0376 48.3398 42.0145 48.3398C21.9913 48.3398 5.7594 53.6364 5.7594 60.17C5.7594 66.7036 21.9913 72.0002 42.0145 72.0002Z" fill="#042030"/>
<path d="M70.408 3.07812L42.0144 16.6848L13.592 3.07812L0 30.7761L42.0144 50.9237L84 30.7761L70.408 3.07812Z" fill="#18392B"/>
<path opacity="0.45" d="M4.953 29.6454L39.797 48.3395L27.8176 31.7046C27.8176 31.7046 8.14944 25.0426 4.953 29.6454Z" fill="#18392B"/>
<path opacity="0.45" d="M79.0757 29.6454L44.2317 48.3395L56.2111 31.7046C56.1823 31.7046 75.8505 25.0426 79.0757 29.6454Z" fill="#18392B"/>
<path d="M42.0144 50.9235L0 30.7759V33.4003L42.0144 53.5479L84 33.4003V30.7759L42.0144 50.9235Z" fill="#64AE90"/>
<path d="M19.6394 63.0365L24.506 45.1499L40.1715 52.6598L19.6394 63.0365Z" fill="#18392B"/>
<path opacity="0.45" d="M20.9928 57.8683L40.1714 52.6598L24.506 45.1499L20.9928 57.8683Z" fill="#18392B"/>
<path d="M42.0144 51.731L19.6394 63.0362L21.3096 65.4992L42.0144 55.1629L62.6905 65.4992L64.3895 63.0362L42.0144 51.731Z" fill="#64AE90"/>
<path d="M64.3895 63.0365L59.494 45.1499L43.8286 52.6598L64.3895 63.0365Z" fill="#18392B"/>
<path opacity="0.45" d="M63.0072 57.8683L43.8286 52.6598L59.494 45.1499L63.0072 57.8683Z" fill="#18392B"/>
<path d="M42.0144 55.1632C42.8573 55.1632 43.5406 54.2051 43.5406 53.0232C43.5406 51.8414 42.8573 50.8833 42.0144 50.8833C41.1715 50.8833 40.4882 51.8414 40.4882 53.0232C40.4882 54.2051 41.1715 55.1632 42.0144 55.1632Z" fill="white" fill-opacity="0.5"/>
<path d="M69.1985 3.07812L42.0144 22.0548L14.8303 3.07812C13.5921 5.37956 3.62842 28.6765 3.62842 28.6765C3.7436 28.6765 3.83 28.7169 3.94518 28.7169C28.9407 32.2296 35.8807 43.2523 38.1845 45.9171C40.4882 48.6223 42.0432 48.3396 42.0432 48.3396C42.0432 48.3396 43.5983 48.6223 45.902 45.9171C48.2057 43.2523 55.1457 32.2296 80.1413 28.7169C80.2565 28.7169 80.3429 28.6765 80.458 28.6765C80.4005 28.6765 70.408 5.41993 69.1985 3.07812Z" fill="#F5B304"/>
<path d="M80.4004 28.6768C80.2852 28.6768 80.1988 28.7171 80.0837 28.7171C55.0881 32.2298 48.1481 43.2525 45.8444 45.9173C43.5406 48.6225 41.9856 48.3399 41.9856 48.3399C41.9856 48.3399 40.4306 48.6225 38.1268 45.9173C35.8231 43.2525 28.8831 32.2298 3.88755 28.7171C3.77237 28.7171 3.68598 28.6768 3.57079 28.6768C3.36921 29.1209 3.57079 29.4439 3.57079 29.4439C28.8255 32.8759 35.5351 43.9389 37.8389 46.6441C40.1426 49.3089 41.9568 49.107 41.9568 49.107C41.9568 49.107 43.771 49.3089 46.0747 46.6441C48.3785 43.9793 55.0881 32.9162 80.3428 29.4439C80.4004 29.4439 80.602 29.1209 80.4004 28.6768Z" fill="#64AE90"/>
<path d="M68.1618 0.857496C54.253 -3.82612 41.9856 12.2031 41.9856 12.2031C41.9856 12.2031 29.7182 -3.82612 15.8094 0.857496C15.8094 0.857496 11.8642 9.33645 6.42163 23.7507C6.42163 23.7507 33.8073 28.0709 41.9856 44.1809C50.1638 28.0709 77.5495 23.7507 77.5495 23.7507C72.1069 9.33645 68.1618 0.857496 68.1618 0.857496Z" fill="#F5EFFB"/>
<path d="M77.5495 23.7505C77.5495 23.7505 50.1638 28.0707 41.9856 44.1807C33.8361 28.0707 6.45042 23.7505 6.45042 23.7505C6.45042 23.7505 6.45042 25.0425 4.92419 27.5862C4.92419 27.5862 29.7758 30.0895 38.8179 44.5441C40.9489 47.9357 41.9856 47.532 41.9856 47.532C41.9856 47.532 43.051 47.9357 45.1532 44.5441C54.1666 30.0895 79.0469 27.5862 79.0469 27.5862C77.5495 25.0021 77.5495 23.7505 77.5495 23.7505Z" fill="#DFCBF4"/>
<path d="M66.6068 2.55329C66.6068 2.55329 56.2112 -1.1613 41.9856 14.3027C27.7888 -1.12093 17.3644 2.55329 17.3644 2.55329L10.338 21.6915C31.7052 23.7507 41.9856 38.8917 41.9856 38.8917C41.9856 38.8917 52.266 23.7507 73.6332 21.6915L66.6068 2.55329ZM42.0144 37.0748C42.0144 37.0748 32.3963 23.2662 12.0082 20.561L17.9115 3.36081C17.9115 3.36081 28.1344 0.57487 42.0144 15.191C55.8944 0.57487 66.1172 3.36081 66.1172 3.36081L72.0206 20.561C51.6325 23.2662 42.0144 37.0748 42.0144 37.0748Z" fill="#D0DED8"/>
<path opacity="0.2" d="M44.6349 28.7143C48.4744 24.744 60.4731 15.958 68.5362 17.1693" stroke="#D0DED8" stroke-width="3" stroke-linecap="round"/>
<path opacity="0.2" d="M44.6349 17.573C48.0425 13.832 56.9023 6.50218 65.0806 7.11088" stroke="#D0DED8" stroke-width="3" stroke-linecap="round"/>
<path opacity="0.2" d="M44.6349 23.2257C48.3305 19.1969 57.939 11.3033 66.8084 11.9588" stroke="#D0DED8" stroke-width="3" stroke-linecap="round"/>
<path opacity="0.2" d="M39.7395 28.7143C35.8999 24.744 23.9013 15.958 15.8382 17.1693" stroke="#D0DED8" stroke-width="3" stroke-linecap="round"/>
<path opacity="0.2" d="M39.7395 17.573C36.3319 13.832 27.4721 6.50218 19.2938 7.11088" stroke="#D0DED8" stroke-width="3" stroke-linecap="round"/>
<path opacity="0.2" d="M39.7395 23.2257C36.0439 19.1969 26.4354 11.3033 17.566 11.9588" stroke="#D0DED8" stroke-width="3" stroke-linecap="round"/>
<path d="M42.0144 12.203C42.0144 12.203 42.3023 10.7899 42.8495 11.1936C42.8495 11.1936 42.5039 34.0868 43.0799 43.0099C43.2238 45.2306 44.6061 48.2588 45.1532 49.3893H44.4333L44.2317 50.318C44.2317 50.318 42.1008 45.271 42.0144 43.2926C41.5824 34.4098 41.8128 14.343 42.0144 12.203Z" fill="#54DAF5"/>
</g>
<defs>
<clipPath id="clip0_14_796">
<rect width="84" height="72" fill="white"/>
</clipPath>
</defs>
</svg>
