<svg width="197" height="130" viewBox="0 0 197 130" fill="none" xmlns="http://www.w3.org/2000/svg">
<g clip-path="url(#clip0_3_185)">
<path opacity="0.25" d="M98.5338 130C145.493 130 183.561 120.437 183.561 108.64C183.561 96.843 145.493 87.2798 98.5338 87.2798C51.5749 87.2798 13.5071 96.843 13.5071 108.64C13.5071 120.437 51.5749 130 98.5338 130Z" fill="#042030"/>
<path d="M165.123 5.55762L98.5338 30.1253L31.8766 5.55762L0 55.5678L98.5338 91.9454L197 55.5678L165.123 5.55762Z" fill="#18392B"/>
<path opacity="0.45" d="M11.6161 53.5264L93.3336 87.2796L65.239 57.2444C65.239 57.2444 19.1125 45.2157 11.6161 53.5264Z" fill="#18392B"/>
<path opacity="0.45" d="M185.452 53.5264L103.734 87.2796L131.829 57.2444C131.761 57.2444 177.888 45.2157 185.452 53.5264Z" fill="#18392B"/>
<path d="M98.5338 91.9455L0 55.5679V60.3064L98.5338 96.6841L197 60.3064V55.5679L98.5338 91.9455Z" fill="#64AE90"/>
<path d="M46.059 113.816L57.4724 81.521L94.2115 95.0806L46.059 113.816Z" fill="#18392B"/>
<path opacity="0.45" d="M49.2332 104.485L94.2116 95.0806L57.4724 81.521L49.2332 104.485Z" fill="#18392B"/>
<path d="M98.5338 93.4038L46.059 113.816L49.976 118.263L98.5338 99.6004L147.024 118.263L151.009 113.816L98.5338 93.4038Z" fill="#64AE90"/>
<path d="M151.009 113.816L139.528 81.521L102.788 95.0806L151.009 113.816Z" fill="#18392B"/>
<path opacity="0.45" d="M147.767 104.485L102.788 95.0806L139.528 81.521L147.767 104.485Z" fill="#18392B"/>
<path d="M98.5337 99.6001C100.511 99.6001 102.113 97.8702 102.113 95.7363C102.113 93.6024 100.511 91.8726 98.5337 91.8726C96.5569 91.8726 94.9543 93.6024 94.9543 95.7363C94.9543 97.8702 96.5569 99.6001 98.5337 99.6001Z" fill="white" fill-opacity="0.5"/>
<path d="M162.287 5.55762L98.5339 39.8211L34.7807 5.55762C31.8767 9.71298 8.50952 51.7769 8.50952 51.7769C8.77966 51.7769 8.98227 51.8498 9.25241 51.8498C67.8729 58.1922 84.1489 78.0942 89.5517 82.9057C94.9545 87.7901 98.6014 87.2798 98.6014 87.2798C98.6014 87.2798 102.248 87.7901 107.651 82.9057C113.054 78.0942 129.33 58.1922 187.95 51.8498C188.221 51.8498 188.423 51.7769 188.693 51.7769C188.558 51.7769 165.124 9.78588 162.287 5.55762Z" fill="#F5B304"/>
<path d="M188.558 51.7773C188.288 51.7773 188.085 51.8502 187.815 51.8502C129.195 58.1926 112.919 78.0946 107.516 82.9061C102.113 87.7905 98.4663 87.2802 98.4663 87.2802C98.4663 87.2802 94.8194 87.7905 89.4166 82.9061C84.0138 78.0946 67.7378 58.1926 9.1173 51.8502C8.84716 51.8502 8.64456 51.7773 8.37442 51.7773C7.90167 52.5793 8.37442 53.1625 8.37442 53.1625C67.6027 59.3591 83.3384 79.334 88.7412 84.2183C94.1441 89.0298 98.3988 88.6653 98.3988 88.6653C98.3988 88.6653 102.653 89.0298 108.056 84.2183C113.459 79.4069 129.195 59.432 188.423 53.1625C188.558 53.1625 189.031 52.5793 188.558 51.7773Z" fill="#64AE90"/>
<path d="M159.856 1.54826C127.236 -6.90827 98.4663 22.0335 98.4663 22.0335C98.4663 22.0335 69.6964 -6.90827 37.0769 1.54826C37.0769 1.54826 27.8246 16.8575 15.0604 42.8832C15.0604 42.8832 79.2863 50.6836 98.4663 79.7711C117.646 50.6836 181.872 42.8832 181.872 42.8832C169.108 16.8575 159.856 1.54826 159.856 1.54826Z" fill="#F5EFFB"/>
<path d="M181.872 42.8833C181.872 42.8833 117.646 50.6837 98.4663 79.7713C79.3539 50.6837 15.1279 42.8833 15.1279 42.8833C15.1279 42.8833 15.1279 45.2161 11.5486 49.8089C11.5486 49.8089 69.8314 54.3288 91.0374 80.4274C96.035 86.5511 98.4663 85.8221 98.4663 85.8221C98.4663 85.8221 100.965 86.5511 105.895 80.4274C127.034 54.3288 185.384 49.8089 185.384 49.8089C181.872 45.1432 181.872 42.8833 181.872 42.8833Z" fill="#DFCBF4"/>
<path d="M156.209 4.61011C156.209 4.61011 131.829 -2.0968 98.4664 25.8243C65.1715 -2.0239 40.7238 4.61011 40.7238 4.61011L24.2452 39.1653C74.3563 42.8832 98.4664 70.2211 98.4664 70.2211C98.4664 70.2211 122.576 42.8832 172.687 39.1653L156.209 4.61011ZM98.5339 66.9406C98.5339 66.9406 75.9772 42.0084 28.1623 37.124L42.007 6.06814C42.007 6.06814 65.982 1.03796 98.5339 27.4282C131.086 1.03796 155.061 6.06814 155.061 6.06814L168.905 37.124C121.091 42.0084 98.5339 66.9406 98.5339 66.9406Z" fill="#D0DED8"/>
<path opacity="0.2" d="M104.68 51.8452C113.684 44.6766 141.824 28.813 160.734 31" stroke="#D0DED8" stroke-width="3" stroke-linecap="round"/>
<path opacity="0.2" d="M104.68 31.7292C112.671 24.9746 133.45 11.7403 152.63 12.8393" stroke="#D0DED8" stroke-width="3" stroke-linecap="round"/>
<path opacity="0.2" d="M104.68 41.9353C113.347 34.6611 135.881 20.4087 156.682 21.5923" stroke="#D0DED8" stroke-width="3" stroke-linecap="round"/>
<path opacity="0.2" d="M93.1986 51.8452C84.1939 44.6766 56.0543 28.813 37.1444 31" stroke="#D0DED8" stroke-width="3" stroke-linecap="round"/>
<path opacity="0.2" d="M93.1986 31.7292C85.2069 24.9746 64.4286 11.7403 45.2487 12.8393" stroke="#D0DED8" stroke-width="3" stroke-linecap="round"/>
<path opacity="0.2" d="M93.1986 41.9353C84.5316 34.6611 61.9974 20.4087 41.1966 21.5923" stroke="#D0DED8" stroke-width="3" stroke-linecap="round"/>
<path d="M98.5339 22.0336C98.5339 22.0336 99.2092 19.4821 100.492 20.2111C100.492 20.2111 99.682 61.546 101.033 77.6571C101.37 81.6667 104.612 87.1343 105.895 89.1755H104.207L103.734 90.8522C103.734 90.8522 98.7365 81.7396 98.5339 78.1675C97.5208 62.1292 98.0611 25.8974 98.5339 22.0336Z" fill="#54DAF5"/>
</g>
<defs>
<clipPath id="clip0_3_185">
<rect width="197" height="130" fill="white"/>
</clipPath>
</defs>
</svg>
