<svg width="24" height="24" viewBox="0 0 24 24" fill="none" xmlns="http://www.w3.org/2000/svg">
<path d="M14.2614 8.04896V6.43117C14.9062 5.95868 15.5966 5.60439 16.3326 5.36829C17.0688 5.13219 17.8246 5.01414 18.6 5.01414C19.043 5.01414 19.4684 5.05528 19.8762 5.13755C20.2838 5.22011 20.7046 5.33715 21.1386 5.48866V7.06647C20.72 6.87237 20.3119 6.7381 19.9143 6.66365C19.5165 6.58891 19.0784 6.55154 18.6 6.55154C17.8246 6.55154 17.0677 6.67799 16.3293 6.93089C15.5907 7.18379 14.9014 7.55648 14.2614 8.04896ZM14.2614 17.5419V15.8572C14.8754 15.385 15.562 15.0307 16.3212 14.7943C17.0804 14.5582 17.84 14.4402 18.6 14.4402C19.043 14.4402 19.4684 14.4814 19.8762 14.564C20.2838 14.6463 20.7046 14.7632 21.1386 14.9147V16.4925C20.72 16.2987 20.3119 16.1644 19.9143 16.0897C19.5165 16.0149 19.0784 15.9775 18.6 15.9775C17.8246 15.9775 17.0677 16.1136 16.3293 16.3856C15.5907 16.6573 14.9014 17.0427 14.2614 17.5419ZM14.2614 12.8289V11.1442C14.9062 10.672 15.5966 10.3177 16.3326 10.0813C17.0688 9.8452 17.8246 9.72715 18.6 9.72715C19.043 9.72715 19.4684 9.76828 19.8762 9.85056C20.2838 9.93312 20.7046 10.0502 21.1386 10.2017V11.7795C20.72 11.5857 20.3119 11.4514 19.9143 11.3767C19.5165 11.3019 19.0784 11.2645 18.6 11.2645C17.8246 11.2645 17.0677 11.4021 16.3293 11.6774C15.5907 11.9526 14.9014 12.3364 14.2614 12.8289ZM5.4 19.2535C6.4476 19.2535 7.4664 19.4279 8.4564 19.7767C9.4464 20.1255 10.4276 20.6932 11.4 21.4797V4.42577C10.5338 3.52976 9.5792 2.85781 8.5362 2.40995C7.493 1.96208 6.4476 1.73815 5.4 1.73815C4.68 1.73815 4.0496 1.80058 3.5088 1.92544C2.968 2.0503 2.3676 2.28205 1.7076 2.6207C1.523 2.70993 1.3923 2.83812 1.3155 3.00527C1.2385 3.17213 1.2 3.35594 1.2 3.5567V19.2266C1.2 19.5386 1.2769 19.767 1.4307 19.9119C1.5845 20.0567 1.7538 20.0735 1.9386 19.9623C2.377 19.7482 2.8835 19.5765 3.4581 19.4473C4.0327 19.3181 4.68 19.2535 5.4 19.2535ZM12.6 21.4797C13.5724 20.6932 14.5536 20.1255 15.5436 19.7767C16.5336 19.4279 17.5524 19.2535 18.6 19.2535C19.32 19.2535 19.9673 19.3181 20.5419 19.4473C21.1165 19.5765 21.623 19.7482 22.0614 19.9623C22.2462 20.0735 22.4155 20.0567 22.5693 19.9119C22.7231 19.767 22.8 19.5386 22.8 19.2266V3.5567C22.8 3.35594 22.7615 3.17763 22.6845 3.02178C22.6077 2.86593 22.477 2.73223 22.2924 2.6207C21.6324 2.28205 21.032 2.0503 20.4912 1.92544C19.9504 1.80058 19.32 1.73815 18.6 1.73815C17.5524 1.73815 16.507 1.96208 15.4638 2.40995C14.4208 2.85781 13.4662 3.52976 12.6 4.42577V21.4797ZM12 24C11.0246 23.0327 9.9769 22.2895 8.8569 21.7704C7.7369 21.2513 6.5846 20.9917 5.4 20.9917C4.7754 20.9917 4.1619 21.0674 3.5595 21.219C2.9573 21.3705 2.3708 21.6134 1.8 21.9477C1.3646 22.1994 0.9558 22.1237 0.5736 21.7204C0.1912 21.3172 0 20.7601 0 20.0492V3.24904C0 2.81885 0.0780999 2.41994 0.2343 2.05232C0.3905 1.68471 0.6093 1.42847 0.8907 1.28363C1.5953 0.833444 2.3284 0.506962 3.09 0.304177C3.8516 0.101392 4.6216 0 5.4 0C6.5754 0 7.7219 0.245079 8.8395 0.735239C9.9573 1.22569 11.0108 1.93891 12 2.87491C12.9892 1.93891 14.0427 1.22569 15.1605 0.735239C16.2781 0.245079 17.4246 0 18.6 0C19.3784 0 20.1484 0.101392 20.91 0.304177C21.6716 0.506962 22.4047 0.833444 23.1093 1.28363C23.3907 1.42847 23.6095 1.68471 23.7657 2.05232C23.9219 2.41994 24 2.81885 24 3.24904V20.0492C24 20.7601 23.7935 21.306 23.3805 21.687C22.9673 22.0679 22.5276 22.1325 22.0614 21.8808C21.5062 21.5688 20.9389 21.3425 20.3595 21.202C19.7803 21.0618 19.1938 20.9917 18.6 20.9917C17.4154 20.9917 16.2631 21.2513 15.1431 21.7704C14.0231 22.2895 12.9754 23.0327 12 24Z" fill="#90BAA9"/>
</svg>
