<svg width="26" height="28" viewBox="0 0 26 28" fill="none" xmlns="http://www.w3.org/2000/svg">
<path d="M13 17.75C15.0711 17.75 16.75 16.0711 16.75 14C16.75 11.9289 15.0711 10.25 13 10.25C10.9289 10.25 9.25 11.9289 9.25 14C9.25 16.0711 10.9289 17.75 13 17.75Z" stroke="#90BAA9" stroke-width="1.5"/>
<path d="M15.2062 1.69C14.7475 1.5 14.165 1.5 13 1.5C11.835 1.5 11.2525 1.5 10.7937 1.69C10.4902 1.81564 10.2144 1.99987 9.98211 2.23215C9.74982 2.46444 9.56559 2.74023 9.43995 3.04375C9.32495 3.3225 9.2787 3.64875 9.2612 4.1225C9.25306 4.46491 9.15821 4.79966 8.9855 5.09544C8.8128 5.39122 8.5679 5.63836 8.2737 5.81375C7.97471 5.98096 7.63819 6.06959 7.29562 6.07134C6.95305 6.07309 6.61564 5.9879 6.31495 5.82375C5.89495 5.60125 5.5912 5.47875 5.28995 5.43875C4.63285 5.35234 3.96833 5.53038 3.44245 5.93375C3.04995 6.2375 2.75745 6.74125 2.17495 7.75C1.59245 8.75875 1.29995 9.2625 1.2362 9.75625C1.19325 10.0818 1.21485 10.4127 1.29979 10.7299C1.38472 11.0471 1.53132 11.3445 1.7312 11.605C1.9162 11.845 2.17495 12.0462 2.5762 12.2987C3.16745 12.67 3.54745 13.3025 3.54745 14C3.54745 14.6975 3.16745 15.33 2.5762 15.7C2.17495 15.9537 1.91495 16.155 1.7312 16.395C1.53132 16.6555 1.38472 16.9529 1.29979 17.2701C1.21485 17.5873 1.19325 17.9182 1.2362 18.2438C1.3012 18.7363 1.59245 19.2413 2.1737 20.25C2.75745 21.2587 3.0487 21.7625 3.44245 22.0662C3.703 22.2661 4.00037 22.4127 4.31758 22.4977C4.6348 22.5826 4.96564 22.6042 5.2912 22.5613C5.5912 22.5213 5.89495 22.3988 6.31495 22.1763C6.61564 22.0121 6.95305 21.9269 7.29562 21.9287C7.63819 21.9304 7.97471 22.019 8.2737 22.1862C8.87745 22.5362 9.2362 23.18 9.2612 23.8775C9.2787 24.3525 9.3237 24.6775 9.43995 24.9562C9.56559 25.2598 9.74982 25.5356 9.98211 25.7678C10.2144 26.0001 10.4902 26.1844 10.7937 26.31C11.2525 26.5 11.835 26.5 13 26.5C14.165 26.5 14.7475 26.5 15.2062 26.31C15.5097 26.1844 15.7855 26.0001 16.0178 25.7678C16.2501 25.5356 16.4343 25.2598 16.56 24.9562C16.675 24.6775 16.7212 24.3525 16.7387 23.8775C16.7637 23.18 17.1225 22.535 17.7262 22.1862C18.0252 22.019 18.3617 21.9304 18.7043 21.9287C19.0469 21.9269 19.3843 22.0121 19.685 22.1763C20.105 22.3988 20.4087 22.5213 20.7087 22.5613C21.0343 22.6042 21.3651 22.5826 21.6823 22.4977C21.9995 22.4127 22.2969 22.2661 22.5575 22.0662C22.9512 21.7637 23.2425 21.2587 23.825 20.25C24.4075 19.2413 24.7 18.7375 24.7637 18.2438C24.8067 17.9182 24.7851 17.5873 24.7001 17.2701C24.6152 16.9529 24.4686 16.6555 24.2687 16.395C24.0837 16.155 23.825 15.9538 23.4237 15.7013C23.1311 15.523 22.8885 15.2734 22.7187 14.9759C22.5488 14.6783 22.4572 14.3426 22.4525 14C22.4525 13.3025 22.8325 12.67 23.4237 12.3C23.825 12.0463 24.085 11.845 24.2687 11.605C24.4686 11.3445 24.6152 11.0471 24.7001 10.7299C24.7851 10.4127 24.8067 10.0818 24.7637 9.75625C24.6987 9.26375 24.4075 8.75875 23.8262 7.75C23.2425 6.74125 22.9512 6.2375 22.5575 5.93375C22.2969 5.73386 21.9995 5.58727 21.6823 5.50233C21.3651 5.4174 21.0343 5.39579 20.7087 5.43875C20.4087 5.47875 20.105 5.60125 19.6837 5.82375C19.3832 5.98768 19.046 6.07274 18.7037 6.07099C18.3613 6.06925 18.025 5.98074 17.7262 5.81375C17.432 5.63836 17.1871 5.39122 17.0144 5.09544C16.8417 4.79966 16.7468 4.46491 16.7387 4.1225C16.7212 3.6475 16.6762 3.3225 16.56 3.04375C16.4343 2.74023 16.2501 2.46444 16.0178 2.23215C15.7855 1.99987 15.5097 1.81564 15.2062 1.69Z" stroke="#90BAA9" stroke-width="1.5"/>
</svg>
